<?xml version="1.0" encoding="UTF-8"?>
<svg width="512" height="512" viewBox="0 0 512 512" xmlns="http://www.w3.org/2000/svg">
  <defs>
    <linearGradient id="gradient" x1="0%" y1="0%" x2="100%" y2="100%">
      <stop offset="0%" stop-color="#4a6fd0"/>
      <stop offset="100%" stop-color="#9b59b6"/>
    </linearGradient>
  </defs>
  <rect width="512" height="512" rx="100" fill="url(#gradient)"/>
  <g fill="white" transform="translate(110, 110) scale(0.6)">
    <path d="M464 64H144C135.2 64 128 71.2 128 80V336C128 344.8 135.2 352 144 352H464C472.8 352 480 344.8 480 336V80C480 71.2 472.8 64 464 64ZM448 320H160V96H448V320Z"/>
    <path d="M304 416H48V192H64V176H32C23.2 176 16 183.2 16 192V432C16 440.8 23.2 448 32 448H304C312.8 448 320 440.8 320 432V416H304V416Z"/>
    <path d="M224 320H384V288H224V320Z"/>
    <path d="M224 192H384V160H224V192Z"/>
    <path d="M224 256H384V224H224V256Z"/>
  </g>
</svg>